<svg width="40" height="40" viewBox="0 0 40 40" fill="none" xmlns="http://www.w3.org/2000/svg">
<g id="mingcute:chip-fill" clip-path="url(#clip0_183_120)">
<g id="Group">
<path id="Vector" d="M24.9999 3.33325C25.4419 3.33325 25.8659 3.50885 26.1784 3.82141C26.491 4.13397 26.6666 4.55789 26.6666 4.99992V6.66659H28.3333C29.6593 6.66659 30.9311 7.19337 31.8688 8.13105C32.8065 9.06873 33.3333 10.3405 33.3333 11.6666V13.3333H34.9999C35.4419 13.3333 35.8659 13.5088 36.1784 13.8214C36.491 14.134 36.6666 14.5579 36.6666 14.9999C36.6666 15.4419 36.491 15.8659 36.1784 16.1784C35.8659 16.491 35.4419 16.6666 34.9999 16.6666H33.3333V23.3333H34.9999C35.4419 23.3333 35.8659 23.5088 36.1784 23.8214C36.491 24.134 36.6666 24.5579 36.6666 24.9999C36.6666 25.4419 36.491 25.8659 36.1784 26.1784C35.8659 26.491 35.4419 26.6666 34.9999 26.6666H33.3333V28.3333C33.3333 29.6593 32.8065 30.9311 31.8688 31.8688C30.9311 32.8065 29.6593 33.3333 28.3333 33.3333H26.6666V34.9999C26.6666 35.4419 26.491 35.8659 26.1784 36.1784C25.8659 36.491 25.4419 36.6666 24.9999 36.6666C24.5579 36.6666 24.134 36.491 23.8214 36.1784C23.5088 35.8659 23.3333 35.4419 23.3333 34.9999V33.3333H16.6666V34.9999C16.6666 35.4419 16.491 35.8659 16.1784 36.1784C15.8659 36.491 15.4419 36.6666 14.9999 36.6666C14.5579 36.6666 14.134 36.491 13.8214 36.1784C13.5088 35.8659 13.3333 35.4419 13.3333 34.9999V33.3333H11.6666C10.3405 33.3333 9.06873 32.8065 8.13105 31.8688C7.19337 30.9311 6.66659 29.6593 6.66659 28.3333V26.6666H4.99992C4.55789 26.6666 4.13397 26.491 3.82141 26.1784C3.50885 25.8659 3.33325 25.4419 3.33325 24.9999C3.33325 24.5579 3.50885 24.134 3.82141 23.8214C4.13397 23.5088 4.55789 23.3333 4.99992 23.3333H6.66659V16.6666H4.99992C4.55789 16.6666 4.13397 16.491 3.82141 16.1784C3.50885 15.8659 3.33325 15.4419 3.33325 14.9999C3.33325 14.5579 3.50885 14.134 3.82141 13.8214C4.13397 13.5088 4.55789 13.3333 4.99992 13.3333H6.66659V11.6666C6.66659 10.3405 7.19337 9.06873 8.13105 8.13105C9.06873 7.19337 10.3405 6.66659 11.6666 6.66659H13.3333V4.99992C13.3333 4.55789 13.5088 4.13397 13.8214 3.82141C14.134 3.50885 14.5579 3.33325 14.9999 3.33325C15.4419 3.33325 15.8659 3.50885 16.1784 3.82141C16.491 4.13397 16.6666 4.55789 16.6666 4.99992V6.66659H23.3333V4.99992C23.3333 4.55789 23.5088 4.13397 23.8214 3.82141C24.134 3.50885 24.5579 3.33325 24.9999 3.33325ZM23.3333 13.3333H16.6666C15.7825 13.3333 14.9347 13.6844 14.3096 14.3096C13.6844 14.9347 13.3333 15.7825 13.3333 16.6666V23.3333C13.3333 24.2173 13.6844 25.0652 14.3096 25.6903C14.9347 26.3154 15.7825 26.6666 16.6666 26.6666H23.3333C24.2173 26.6666 25.0652 26.3154 25.6903 25.6903C26.3154 25.0652 26.6666 24.2173 26.6666 23.3333V16.6666C26.6666 15.7825 26.3154 14.9347 25.6903 14.3096C25.0652 13.6844 24.2173 13.3333 23.3333 13.3333ZM23.3333 16.6666V23.3333H16.6666V16.6666H23.3333Z" fill="#4C62A1"/>
</g>
</g>
<defs>
<clipPath id="clip0_183_120">
<rect width="40" height="40" fill="white"/>
</clipPath>
</defs>
</svg>
