<svg width="40" height="40" viewBox="0 0 40 40" fill="none" xmlns="http://www.w3.org/2000/svg">
<g id="ic:sharp-support-agent">
<path id="Vector" d="M14.9999 23.3333C15.9204 23.3333 16.6666 22.5871 16.6666 21.6667C16.6666 20.7462 15.9204 20 14.9999 20C14.0794 20 13.3333 20.7462 13.3333 21.6667C13.3333 22.5871 14.0794 23.3333 14.9999 23.3333Z" fill="#4C62A1"/>
<path id="Vector_2" d="M24.9999 23.3333C25.9204 23.3333 26.6666 22.5871 26.6666 21.6667C26.6666 20.7462 25.9204 20 24.9999 20C24.0794 20 23.3333 20.7462 23.3333 21.6667C23.3333 22.5871 24.0794 23.3333 24.9999 23.3333Z" fill="#4C62A1"/>
<path id="Vector_3" d="M30 18.3833C29.6026 16.0402 28.389 13.9133 26.5741 12.379C24.7592 10.8447 22.4599 10.002 20.0834 10C15.0334 10 9.60003 14.1833 10.0334 20.75C12.0886 19.909 13.9038 18.5725 15.3171 16.8596C16.7304 15.1468 17.6979 13.1109 18.1334 10.9333C20.3167 15.3167 24.8 18.3333 30 18.3833Z" fill="#4C62A1"/>
<path id="Vector_4" d="M34.9833 20C34.7999 11.05 27.7999 5 19.9999 5C12.3166 5 5.24992 10.8833 5.01659 20H3.33325V30H8.33325V20.3167C8.33325 13.9333 13.2499 8.35 19.6333 8.16667C21.1955 8.11915 22.7514 8.38572 24.2087 8.95057C25.6661 9.51542 26.9952 10.3671 28.1174 11.455C29.2395 12.543 30.1319 13.8451 30.7415 15.2843C31.3512 16.7235 31.6657 18.2704 31.6666 19.8333V31.6667H18.3333V35H34.9999V30H36.6666V20H34.9833Z" fill="#4C62A1"/>
</g>
</svg>
