<svg width="12" height="13" viewBox="0 0 12 13" fill="none" xmlns="http://www.w3.org/2000/svg">
<path id="Vector" d="M4.03697 6.93753C4.03697 5.83813 4.92797 4.94664 6.02738 4.94664C7.12678 4.94664 8.01827 5.83813 8.01827 6.93753C8.01827 8.03694 7.12678 8.92843 6.02738 8.92843C4.92797 8.92843 4.03697 8.03694 4.03697 6.93753ZM2.96071 6.93753C2.96071 8.63126 4.33365 10.0042 6.02738 10.0042C7.72111 10.0042 9.09404 8.63126 9.09404 6.93753C9.09404 5.2438 7.72111 3.87087 6.02738 3.87087C4.33365 3.87087 2.96071 5.2438 2.96071 6.93753ZM8.49875 3.7493C8.49875 4.14488 8.81955 4.46616 9.21561 4.46616C9.61118 4.46616 9.93246 4.14488 9.93246 3.7493C9.93246 3.35373 9.61166 3.03293 9.21561 3.03293C8.81955 3.03293 8.49875 3.35373 8.49875 3.7493ZM3.61438 11.7987C3.03211 11.7722 2.71565 11.6753 2.50532 11.5932C2.22649 11.4847 2.02774 11.3554 1.81837 11.1465C1.60949 10.9377 1.47972 10.7389 1.37167 10.4601C1.28966 10.2497 1.19269 9.93328 1.16616 9.35102C1.13722 8.72147 1.13143 8.53237 1.13143 6.93753C1.13143 5.34269 1.1377 5.15407 1.16616 4.52405C1.19269 3.94178 1.29014 3.62581 1.37167 3.415C1.48021 3.13616 1.60949 2.93741 1.81837 2.72805C2.02726 2.51917 2.22601 2.3894 2.50532 2.28134C2.71565 2.19933 3.03211 2.10237 3.61438 2.07583C4.24392 2.04689 4.43302 2.0411 6.02738 2.0411C7.62222 2.0411 7.81084 2.04737 8.44086 2.07583C9.02313 2.10237 9.3391 2.19981 9.54991 2.28134C9.82875 2.3894 10.0275 2.51917 10.2369 2.72805C10.4457 2.93693 10.575 3.13616 10.6836 3.415C10.7656 3.62532 10.8625 3.94178 10.8891 4.52405C10.918 5.15407 10.9238 5.34269 10.9238 6.93753C10.9238 8.53189 10.918 8.72099 10.8891 9.35102C10.8625 9.93328 10.7651 10.2497 10.6836 10.4601C10.575 10.7389 10.4457 10.9377 10.2369 11.1465C10.028 11.3554 9.82875 11.4847 9.54991 11.5932C9.33958 11.6753 9.02313 11.7722 8.44086 11.7987C7.81132 11.8277 7.62222 11.8335 6.02738 11.8335C4.43302 11.8335 4.24392 11.8277 3.61438 11.7987ZM3.56517 1.00151C2.92936 1.03046 2.49519 1.13128 2.11554 1.2789C1.72286 1.43134 1.39 1.63588 1.05762 1.96777C0.725722 2.29967 0.521181 2.63253 0.36874 3.02569C0.221124 3.40535 0.120301 3.83951 0.0913563 4.47533C0.0619295 5.1121 0.0551758 5.31568 0.0551758 6.93753C0.0551758 8.55938 0.0619295 8.76296 0.0913563 9.39974C0.120301 10.0356 0.221124 10.4697 0.36874 10.8494C0.521181 11.2421 0.725239 11.5754 1.05762 11.9073C1.38951 12.2392 1.72238 12.4432 2.11554 12.5962C2.49567 12.7438 2.92936 12.8446 3.56517 12.8736C4.20243 12.9025 4.40552 12.9097 6.02738 12.9097C7.64971 12.9097 7.85281 12.903 8.48958 12.8736C9.1254 12.8446 9.55956 12.7438 9.93922 12.5962C10.3319 12.4432 10.6648 12.2392 10.9971 11.9073C11.329 11.5754 11.5331 11.2421 11.686 10.8494C11.8336 10.4697 11.9349 10.0356 11.9634 9.39974C11.9923 8.76248 11.9991 8.55938 11.9991 6.93753C11.9991 5.31568 11.9923 5.1121 11.9634 4.47533C11.9345 3.83951 11.8336 3.40535 11.686 3.02569C11.5331 2.63301 11.329 2.30015 10.9971 1.96777C10.6652 1.63588 10.3319 1.43134 9.9397 1.2789C9.55956 1.13128 9.1254 1.02997 8.49007 1.00151C7.85329 0.972568 7.64971 0.965332 6.02786 0.965332C4.40552 0.965332 4.20243 0.972086 3.56517 1.00151Z" fill="white"/>
</svg>
