<svg width="14" height="14" viewBox="0 0 14 14" fill="none" xmlns="http://www.w3.org/2000/svg">
<g id="Social Media logo" clip-path="url(#clip0_5_560)">
<path id="Vector" d="M4.7783 7.00004C4.7783 5.77279 5.77292 4.77764 7.00016 4.77764C8.22741 4.77764 9.22257 5.77279 9.22257 7.00004C9.22257 8.22729 8.22741 9.22244 7.00016 9.22244C5.77292 9.22244 4.7783 8.22729 4.7783 7.00004ZM3.5769 7.00004C3.5769 8.89073 5.10948 10.4233 7.00016 10.4233C8.89085 10.4233 10.4234 8.89073 10.4234 7.00004C10.4234 5.10936 8.89085 3.57678 7.00016 3.57678C5.10948 3.57678 3.5769 5.10936 3.5769 7.00004ZM9.75891 3.44107C9.75891 3.88265 10.117 4.24129 10.5591 4.24129C11.0007 4.24129 11.3593 3.88265 11.3593 3.44107C11.3593 2.9995 11.0012 2.6414 10.5591 2.6414C10.117 2.6414 9.75891 2.9995 9.75891 3.44107ZM4.30657 12.4265C3.6566 12.3969 3.30334 12.2887 3.06855 12.1971C2.7573 12.076 2.53544 11.9317 2.30172 11.6985C2.06855 11.4653 1.9237 11.2434 1.80307 10.9322C1.71153 10.6974 1.60329 10.3441 1.57367 9.69417C1.54136 8.99143 1.5349 8.78033 1.5349 7.00004C1.5349 5.21975 1.5419 5.0092 1.57367 4.30591C1.60329 3.65594 1.71206 3.30322 1.80307 3.06789C1.92423 2.75664 2.06855 2.53477 2.30172 2.30106C2.5349 2.06789 2.75676 1.92303 3.06855 1.80241C3.30334 1.71086 3.6566 1.60263 4.30657 1.57301C5.00932 1.5407 5.22041 1.53424 7.00016 1.53424C8.78045 1.53424 8.99101 1.54124 9.69429 1.57301C10.3443 1.60263 10.697 1.7114 10.9323 1.80241C11.2436 1.92303 11.4654 2.06789 11.6991 2.30106C11.9323 2.53424 12.0766 2.75664 12.1978 3.06789C12.2893 3.30268 12.3976 3.65594 12.4272 4.30591C12.4595 5.0092 12.466 5.21975 12.466 7.00004C12.466 8.77979 12.4595 8.99089 12.4272 9.69417C12.3976 10.3441 12.2888 10.6974 12.1978 10.9322C12.0766 11.2434 11.9323 11.4653 11.6991 11.6985C11.466 11.9317 11.2436 12.076 10.9323 12.1971C10.6975 12.2887 10.3443 12.3969 9.69429 12.4265C8.99155 12.4588 8.78045 12.4653 7.00016 12.4653C5.22041 12.4653 5.00932 12.4588 4.30657 12.4265ZM4.25164 0.373762C3.5419 0.406072 3.05724 0.518619 2.63344 0.683401C2.1951 0.853568 1.82353 1.08189 1.45251 1.45238C1.08202 1.82287 0.85369 2.19444 0.683523 2.63332C0.518741 3.05712 0.406194 3.54177 0.373884 4.25152C0.341035 4.96235 0.333496 5.18959 0.333496 7.00004C0.333496 8.81049 0.341035 9.03774 0.373884 9.74856C0.406194 10.4583 0.518741 10.943 0.683523 11.3668C0.85369 11.8051 1.08148 12.1772 1.45251 12.5477C1.823 12.9182 2.19456 13.146 2.63344 13.3167C3.05778 13.4815 3.5419 13.594 4.25164 13.6263C4.96301 13.6586 5.18972 13.6667 7.00016 13.6667C8.81115 13.6667 9.03786 13.6592 9.74868 13.6263C10.4584 13.594 10.9431 13.4815 11.3669 13.3167C11.8052 13.146 12.1768 12.9182 12.5478 12.5477C12.9183 12.1772 13.1461 11.8051 13.3168 11.3668C13.4816 10.943 13.5947 10.4583 13.6264 9.74856C13.6588 9.0372 13.6663 8.81049 13.6663 7.00004C13.6663 5.18959 13.6588 4.96235 13.6264 4.25152C13.5941 3.54177 13.4816 3.05712 13.3168 2.63332C13.1461 2.19498 12.9183 1.82341 12.5478 1.45238C12.1773 1.08189 11.8052 0.853568 11.3674 0.683401C10.9431 0.518619 10.4584 0.405533 9.74922 0.373762C9.0384 0.341452 8.81115 0.333374 7.0007 0.333374C5.18972 0.333374 4.96301 0.340913 4.25164 0.373762Z" fill="white"/>
</g>
<defs>
<clipPath id="clip0_5_560">
<rect width="13.3333" height="13.3333" fill="white" transform="translate(0.333496 0.333374)"/>
</clipPath>
</defs>
</svg>
