<svg width="14" height="14" viewBox="0 0 14 14" fill="none" xmlns="http://www.w3.org/2000/svg">
<g id="Social Media logo" clip-path="url(#clip0_5_558)">
<path id="Vector" d="M0.333252 1.88195C0.333252 1.43301 0.483406 1.06264 0.783702 0.77084C1.084 0.479029 1.4744 0.33313 1.95487 0.33313C2.42678 0.33313 2.80858 0.476779 3.1003 0.764106C3.4006 1.0604 3.55076 1.44647 3.55076 1.92235C3.55076 2.35333 3.4049 2.71247 3.11317 2.99979C2.81288 3.29609 2.41819 3.44424 1.92913 3.44424H1.91626C1.44436 3.44424 1.06256 3.29609 0.770832 2.99979C0.479108 2.7035 0.333252 2.33088 0.333252 1.88195ZM0.500562 13.6664V4.66982H3.35771V13.6664H0.500562ZM4.94072 13.6664H7.79786V8.64288C7.79786 8.32862 7.83218 8.08619 7.90082 7.91561C8.02094 7.61033 8.20327 7.35219 8.4478 7.1412C8.69233 6.9302 8.99906 6.8247 9.368 6.8247C10.329 6.8247 10.8094 7.50259 10.8094 8.85837V13.6664H13.6666V8.5082C13.6666 7.17935 13.3663 6.1715 12.7657 5.48464C12.1651 4.79777 11.3714 4.45434 10.3847 4.45434C9.27791 4.45434 8.41562 4.95265 7.79786 5.94928V5.97622H7.78499L7.79786 5.94928V4.66982H4.94072C4.95787 4.95714 4.96646 5.85051 4.96646 7.34995C4.96646 8.84939 4.95787 10.9549 4.94072 13.6664Z" fill="white"/>
</g>
<defs>
<clipPath id="clip0_5_558">
<rect width="13.3333" height="13.3333" fill="white" transform="translate(0.333252 0.333374)"/>
</clipPath>
</defs>
</svg>
