<svg width="12" height="13" viewBox="0 0 12 13" fill="none" xmlns="http://www.w3.org/2000/svg">
<path id="Vector" d="M0.0415039 2.35281C0.0415039 1.95063 0.176017 1.61885 0.445031 1.35745C0.714045 1.09603 1.06378 0.965332 1.4942 0.965332C1.91695 0.965332 2.25898 1.09402 2.52031 1.35141C2.78933 1.61684 2.92384 1.9627 2.92384 2.38901C2.92384 2.77509 2.79318 3.09681 2.53184 3.35421C2.26283 3.61964 1.90926 3.75235 1.47114 3.75235H1.45961C1.03687 3.75235 0.694837 3.61964 0.433502 3.35421C0.172166 3.08878 0.0415039 2.75497 0.0415039 2.35281ZM0.191385 12.9097V4.85027H2.7509V12.9097H0.191385ZM4.16901 12.9097H6.72852V8.40945C6.72852 8.12793 6.75927 7.91076 6.82076 7.75794C6.92836 7.48447 7.0917 7.25321 7.31075 7.0642C7.52981 6.87518 7.80459 6.78068 8.1351 6.78068C8.99596 6.78068 9.42639 7.38795 9.42639 8.6025V12.9097H11.9859V8.2888C11.9859 7.09838 11.7169 6.19552 11.1788 5.58021C10.6408 4.96489 9.92984 4.65723 9.04592 4.65723C8.0544 4.65723 7.28193 5.10364 6.72852 5.99645V6.02058H6.71699L6.72852 5.99645V4.85027H4.16901C4.18438 5.10765 4.19207 5.90796 4.19207 7.25121C4.19207 8.59445 4.18438 10.4806 4.16901 12.9097Z" fill="white"/>
</svg>
