<svg width="40" height="40" viewBox="0 0 40 40" fill="none" xmlns="http://www.w3.org/2000/svg">
<g id="mdi:email-certified">
<path id="Vector" d="M20.8332 22.1666C20.3332 20.6666 20.6665 19.5 20.8332 18.8333C20.6665 18.1666 20.3332 17.1666 20.6665 15.6666C21.1665 14.3333 21.9998 13.6666 22.4998 13.1666C22.6665 12.5 22.9998 11.5 24.3332 10.5C25.4998 9.66663 26.6665 9.66663 27.3332 9.66663C27.4998 9.49996 27.8332 9.33329 28.1665 9.16663V4.33329C28.3332 2.83329 27.1665 1.66663 25.6665 1.66663H4.33317C2.83317 1.66663 1.6665 2.83329 1.6665 4.33329V20.6666C1.6665 22.1666 2.83317 23.3333 4.33317 23.3333H21.4998C21.1665 23 20.9998 22.6666 20.8332 22.1666ZM4.99984 8.33329V4.99996L14.9998 9.99996L24.9998 4.99996V8.33329L14.9998 13.3333L4.99984 8.33329ZM37.6665 16.5C37.3332 15.5 36.4998 15.3333 35.9998 14.8333C35.6665 14.3333 35.6665 13.3333 34.8332 12.8333C33.9998 12.1666 33.1665 12.5 32.4998 12.3333C31.8332 12.1666 31.3332 11.3333 30.3332 11.3333C29.3332 11.3333 28.8332 12 28.1665 12.3333C27.4998 12.5 26.6665 12.1666 25.8332 12.8333C24.9998 13.3333 25.1665 14.1666 24.6665 14.8333C24.1665 15.3333 23.3332 15.6666 22.9998 16.5C22.6665 17.5 23.3332 18.1666 23.3332 18.8333C23.3332 19.5 22.6665 20.1666 22.9998 21.1666C23.3332 22.1666 24.1665 22.3333 24.6665 22.8333C24.9998 23.3333 24.9998 24.3333 25.8332 24.8333C26.6665 25.5 27.4998 25.1666 28.1665 25.3333C28.8332 25.5 29.3332 26.3333 30.3332 26.3333C31.3332 26.3333 31.8332 25.6666 32.4998 25.3333C33.1665 25.1666 33.9998 25.5 34.8332 24.8333C35.6665 24.1666 35.6665 23.3333 35.9998 22.8333C36.4998 22.3333 37.3332 22 37.6665 21.1666C37.9998 20.1666 37.3332 19.5 37.3332 18.8333C37.3332 18.1666 37.9998 17.5 37.6665 16.5ZM30.3332 24C27.4998 24 25.3332 21.6666 25.3332 19C25.3332 16.3333 27.6665 14 30.3332 14C32.9998 14 35.3332 16.3333 35.3332 19C35.3332 21.6666 33.1665 24 30.3332 24ZM32.8332 18.8333C32.8332 20.1666 31.6665 21.3333 30.3332 21.3333C28.9998 21.3333 27.8332 20.1666 27.8332 18.8333C27.8332 17.5 28.9998 16.3333 30.3332 16.3333C31.6665 16.3333 32.8332 17.5 32.8332 18.8333ZM32.4998 28.5L31.6665 33L30.6665 38.1666L27.3332 35L23.3332 36.8333L24.9998 27.3333C25.6665 27.6666 26.4998 27.8333 27.3332 27.8333C27.8332 28.1666 28.4998 28.5 28.9998 28.6666C29.3332 28.8333 29.8332 28.8333 30.3332 28.8333C31.1665 29 31.8332 28.8333 32.4998 28.5ZM37.8332 32.5L34.4998 31.3333L35.1665 27.6666L36.1665 27.1666L36.3332 27L37.8332 32.5Z" fill="#4C62A1"/>
</g>
</svg>
